<?xml version="1.0" standalone="no"?>
<!DOCTYPE svg PUBLIC "-//W3C//DTD SVG 20010904//EN"
 "http://www.w3.org/TR/2001/REC-SVG-20010904/DTD/svg10.dtd">
<svg version="1.0" xmlns="http://www.w3.org/2000/svg"
 width="510.000000pt" height="510.000000pt" viewBox="0 0 510.000000 510.000000"
 preserveAspectRatio="xMidYMid meet">
<metadata>
Created by potrace 1.11, written by Peter Selinger 2001-2013
</metadata>
<g transform="translate(0.000000,510.000000) scale(0.100000,-0.100000)"
fill="#000000" stroke="none">
<path d="M1445 4812 c-54 -9 -161 -46 -189 -65 -55 -39 -123 -117 -157 -180
-43 -80 -54 -111 -81 -232 -19 -85 -22 -130 -23 -300 0 -110 4 -227 8 -260 4
-33 10 -80 13 -105 3 -25 14 -90 26 -145 11 -55 21 -104 21 -108 1 -5 -47 -26
-107 -48 -313 -112 -545 -234 -696 -364 -264 -229 -325 -468 -179 -710 46 -76
196 -219 311 -295 101 -67 304 -169 438 -220 47 -18 92 -36 100 -39 8 -4 43
-16 77 -26 70 -22 67 -8 39 -143 -8 -37 -17 -91 -21 -121 -4 -30 -9 -63 -11
-75 -7 -40 -18 -213 -18 -306 0 -120 9 -221 30 -322 3 -15 6 -31 6 -35 2 -22
54 -146 84 -199 36 -66 124 -153 183 -183 194 -98 481 -39 814 166 124 77 314
224 403 312 l35 34 26 -24 c15 -13 38 -34 51 -47 52 -49 212 -173 304 -235
244 -162 466 -246 658 -246 95 0 112 4 179 31 52 22 92 48 137 91 35 32 64 63
64 68 0 4 13 30 28 56 51 88 86 207 100 345 12 128 6 407 -13 518 -2 14 -6 41
-9 60 -6 35 -11 62 -21 110 -3 14 -7 36 -10 50 -3 14 -7 36 -10 50 -5 25 -2
27 112 65 65 21 123 42 128 45 6 3 42 19 80 35 197 81 417 219 536 335 261
255 269 523 25 773 -105 108 -137 133 -276 216 -165 99 -306 164 -493 227
l-119 39 5 35 c3 19 8 45 11 56 2 12 7 37 10 55 3 19 7 43 10 54 2 11 7 49 11
85 4 36 9 74 12 85 12 49 10 423 -2 490 -7 39 -16 85 -19 103 -13 69 -61 185
-101 247 -153 235 -446 265 -815 84 -56 -27 -213 -119 -220 -128 -3 -4 -21
-17 -41 -29 -44 -27 -184 -138 -275 -219 -37 -32 -68 -58 -69 -58 -1 0 -33 28
-71 61 -127 114 -305 246 -394 293 -25 13 -52 29 -60 36 -40 33 -267 123 -365
144 -52 11 -176 19 -210 13z m2242 -246 c16 -8 40 -26 55 -41 30 -30 82 -134
92 -185 4 -19 9 -44 11 -55 3 -11 9 -42 14 -70 10 -49 8 -369 -3 -433 -3 -18
-8 -52 -11 -75 -13 -92 -38 -222 -44 -229 -3 -4 -35 0 -71 8 -78 18 -256 51
-325 59 -27 4 -57 8 -65 10 -21 6 -136 21 -175 24 -13 1 -39 25 -68 64 -130
173 -178 230 -311 375 l-77 84 47 41 c26 23 57 50 68 59 12 10 28 23 36 30 8
7 32 26 55 42 22 16 42 32 45 36 10 13 206 137 270 171 88 47 191 83 295 102
39 7 135 -2 162 -17z m-2058 3 c164 -52 269 -103 416 -202 84 -56 229 -169
266 -207 9 -9 29 -27 44 -39 27 -21 27 -22 9 -39 -69 -63 -392 -458 -408 -498
-1 -1 -26 -5 -56 -8 -30 -4 -66 -8 -80 -11 -14 -2 -43 -6 -65 -9 -96 -12 -139
-20 -295 -52 -90 -19 -165 -34 -166 -34 -5 0 -29 113 -40 187 -3 26 -8 57 -10
68 -19 103 -25 373 -12 485 21 166 73 282 152 337 45 31 54 33 129 33 44 0 97
-5 116 -11z m1021 -746 c19 -21 55 -63 80 -93 25 -30 57 -68 72 -85 35 -38 35
-43 1 -39 -50 6 -500 5 -517 -2 -24 -9 -19 12 12 48 16 18 35 42 43 54 13 20
36 47 152 175 l50 56 36 -37 c20 -21 52 -55 71 -77z m265 -457 c22 -2 54 -4
70 -5 22 -1 36 -10 52 -34 163 -245 248 -389 365 -616 l80 -154 -19 -41 c-72
-162 -346 -642 -431 -753 -15 -20 -30 -24 -122 -30 -116 -9 -628 -9 -730 0
-36 3 -73 6 -82 6 -35 2 -238 327 -404 647 l-83 160 70 140 c112 220 201 373
348 599 25 39 46 71 46 72 1 2 57 6 126 9 68 4 125 8 127 9 5 4 536 -4 587 -9z
m-1156 -68 c-6 -12 -15 -25 -18 -28 -11 -8 -172 -292 -234 -413 -14 -27 -14
-27 -55 80 -46 121 -106 303 -101 307 4 2 186 39 259 52 14 2 36 7 50 9 14 3
41 8 60 11 19 3 37 8 39 10 11 11 11 -7 0 -28z m1621 18 c106 -15 342 -65 353
-75 4 -4 3 -21 -4 -37 -6 -16 -12 -36 -14 -44 -4 -22 -84 -255 -99 -291 -7
-17 -16 -28 -19 -23 -8 14 -51 94 -89 164 -19 36 -69 121 -112 188 -75 122
-84 138 -68 128 4 -2 28 -7 52 -10z m-2195 -321 c32 -93 83 -233 115 -311 l57
-141 -18 -39 c-40 -86 -120 -297 -164 -434 -26 -80 -48 -146 -49 -147 -2 -2
-147 47 -231 79 -90 34 -225 100 -300 146 -27 17 -63 39 -80 48 -88 49 -214
176 -253 254 -30 61 -35 145 -10 190 74 137 222 258 468 381 129 64 390 162
401 151 3 -4 32 -83 64 -177z m2836 169 c175 -52 417 -165 569 -266 125 -84
252 -225 267 -298 31 -146 -105 -309 -398 -475 -62 -36 -120 -65 -128 -65 -8
0 -22 -6 -30 -14 -9 -7 -29 -18 -46 -24 -16 -6 -86 -31 -154 -56 -69 -25 -126
-46 -127 -46 -1 0 -25 69 -52 153 -28 83 -78 220 -112 302 -34 83 -64 157 -67
166 -2 9 10 50 27 90 49 114 107 271 153 416 23 73 42 133 43 133 0 0 25 -7
55 -16z m-360 -1049 c5 -11 26 -73 47 -137 l37 -117 -95 -23 c-52 -12 -97 -22
-100 -23 -3 -1 -27 -5 -55 -10 -27 -4 -59 -9 -70 -12 -11 -2 -40 -6 -64 -10
l-43 -6 26 39 c15 21 29 47 32 57 4 9 10 17 15 17 5 0 9 4 9 9 0 7 26 55 65
119 6 9 39 70 74 136 l64 119 24 -69 c13 -38 28 -78 34 -89z m-2141 104 c1
-17 155 -282 249 -429 9 -13 12 -21 6 -18 -5 3 -26 9 -45 12 -19 3 -44 7 -55
10 -11 2 -40 7 -65 11 -25 4 -52 9 -60 10 -8 2 -53 11 -100 21 -47 9 -88 19
-92 23 -6 6 47 176 96 306 15 39 29 76 32 84 3 11 8 10 19 -5 8 -10 15 -22 15
-25z m-155 -603 c33 -8 74 -17 90 -20 17 -3 41 -7 55 -10 43 -9 263 -45 305
-50 148 -18 138 -15 169 -58 80 -112 239 -303 359 -432 20 -23 37 -44 37 -47
0 -4 -19 -22 -42 -40 -23 -19 -46 -39 -52 -45 -7 -6 -57 -46 -111 -88 -55 -43
-107 -83 -116 -91 -9 -7 -50 -32 -90 -56 -277 -162 -471 -204 -587 -126 -39
27 -84 94 -107 162 -17 49 -19 60 -31 120 -23 117 -22 379 2 535 24 158 45
260 53 260 3 0 33 -7 66 -14z m2454 -48 c6 -35 13 -74 16 -88 34 -196 48 -457
30 -573 -4 -23 -9 -55 -11 -72 -25 -157 -96 -275 -183 -304 -19 -6 -54 -11
-78 -11 -61 0 -190 28 -235 51 -21 11 -38 17 -38 14 0 -15 -318 172 -350 205
-3 3 -21 17 -40 31 -35 27 -44 34 -129 107 -78 66 -81 69 -81 80 0 6 4 12 8
14 7 3 102 105 156 168 65 75 159 194 205 257 55 76 49 73 171 88 25 3 56 8
70 10 14 3 45 7 70 10 57 7 237 41 310 60 96 24 96 23 109 -47z m-999 -88
c-12 -21 -125 -156 -204 -242 l-66 -73 -61 65 c-33 36 -88 99 -122 140 -34 41
-64 77 -67 80 -3 3 -13 14 -22 25 -17 20 -16 20 267 20 249 0 282 -2 275 -15z"/>
<path d="M2192 3140 c-123 -25 -230 -111 -285 -228 -30 -62 -32 -75 -32 -172
0 -117 12 -165 74 -290 35 -72 136 -220 197 -290 95 -110 376 -370 399 -370
20 0 131 97 266 230 276 273 408 498 413 705 2 77 -12 149 -38 200 -46 88
-153 177 -246 205 -125 37 -265 11 -363 -67 l-28 -22 -47 33 c-84 60 -208 87
-310 66z"/>
</g>
</svg>
